<svg width="35" height="35" viewBox="0 0 35 35" fill="none" xmlns="http://www.w3.org/2000/svg">
<path d="M20.3199 13.7102V14.9602H21.5699H27.3938C27.4145 14.9602 27.4249 14.9632 27.4282 14.9642C27.4318 14.9653 27.4341 14.9666 27.4365 14.9682C27.4423 14.9723 27.4547 14.9842 27.4639 15.0065C27.4731 15.0288 27.4728 15.0461 27.4715 15.0535C27.471 15.0565 27.4702 15.0593 27.4683 15.0629C27.4666 15.0662 27.4611 15.0759 27.4462 15.0908L27.4459 15.0911L17.3458 25.1978C17.3458 25.1978 17.3458 25.1978 17.3458 25.1979C17.3431 25.2005 17.3412 25.2016 17.3389 25.2025C17.3357 25.2038 17.3302 25.2052 17.3233 25.2052C17.3163 25.2052 17.3109 25.2038 17.3076 25.2025C17.3053 25.2016 17.3034 25.2005 17.3007 25.1978L17.3004 25.1975L7.18703 15.0908C7.18694 15.0907 7.18685 15.0906 7.18676 15.0905C7.17206 15.0758 7.16665 15.0662 7.16496 15.0629C7.16309 15.0593 7.16224 15.0565 7.16171 15.0535C7.16043 15.0461 7.16012 15.0288 7.16935 15.0065C7.17859 14.9842 7.19095 14.9723 7.19674 14.9682C7.19911 14.9666 7.20144 14.9653 7.20505 14.9642C7.20831 14.9632 7.21872 14.9602 7.23948 14.9602H13.0699H14.3199V13.7102V2.55396C14.3199 2.36111 14.4708 2.21021 14.6637 2.21021H19.9762C20.169 2.21021 20.3199 2.36111 20.3199 2.55396V13.7102ZM33.0699 25.929V33.3665C33.0699 33.5593 32.919 33.7102 32.7262 33.7102H30.7059C31.2447 33.2372 31.5856 32.5438 31.5856 31.7727C31.5856 30.3519 30.4283 29.1946 29.0074 29.1946C28.1271 29.1946 27.3478 29.6389 26.8824 30.315C26.417 29.6389 25.6378 29.1946 24.7574 29.1946C23.3366 29.1946 22.1793 30.3519 22.1793 31.7727C22.1793 32.5438 22.5202 33.2372 23.059 33.7102H1.9137C1.72085 33.7102 1.56995 33.5593 1.56995 33.3665V25.929C1.56995 25.7361 1.72085 25.5852 1.9137 25.5852H11.1377L14.0255 28.473C15.8484 30.2959 18.7915 30.2959 20.6144 28.473L23.5022 25.5852H32.7262C32.919 25.5852 33.0699 25.7361 33.0699 25.929ZM26.8824 33.2304C27.0044 33.4075 27.1478 33.5687 27.309 33.7102H26.4559C26.6171 33.5687 26.7605 33.4075 26.8824 33.2304Z" stroke="#352958" stroke-width="2.5"/>
</svg>
