<svg width="77" height="93" viewBox="0 0 77 93" fill="none" xmlns="http://www.w3.org/2000/svg">
<path d="M44.88 24.502V0H5.36279C2.7349 0 0.620728 1.92773 0.620728 4.32388V87.9189C0.620728 90.315 2.7349 92.2427 5.36279 92.2427H71.7516C74.3795 92.2427 76.4937 90.315 76.4937 87.9189V28.8259H49.622C47.0139 28.8259 44.88 26.8801 44.88 24.502ZM57.5255 67.0201C57.5255 68.2092 56.4585 69.1821 55.1544 69.1821H21.96C20.6559 69.1821 19.589 68.2092 19.589 67.0201V65.5788C19.589 64.3898 20.6559 63.4169 21.96 63.4169H55.1544C56.4585 63.4169 57.5255 64.3898 57.5255 65.5788V67.0201ZM57.5255 55.4898C57.5255 56.6788 56.4585 57.6517 55.1544 57.6517H21.96C20.6559 57.6517 19.589 56.6788 19.589 55.4898V54.0485C19.589 52.8594 20.6559 51.8865 21.96 51.8865H55.1544C56.4585 51.8865 57.5255 52.8594 57.5255 54.0485V55.4898ZM57.5255 42.5181V43.9594C57.5255 45.1485 56.4585 46.1214 55.1544 46.1214H21.96C20.6559 46.1214 19.589 45.1485 19.589 43.9594V42.5181C19.589 41.3291 20.6559 40.3562 21.96 40.3562H55.1544C56.4585 40.3562 57.5255 41.3291 57.5255 42.5181ZM76.4937 21.9617V23.0607H51.2027V0H52.408C53.6725 0 54.8778 0.450404 55.767 1.26113L75.1106 18.917C75.9997 19.7277 76.4937 20.8267 76.4937 21.9617Z" fill="#352958" fill-opacity="0.8"/>
</svg>
