<svg width="281" height="30" viewBox="0 0 281 30" fill="none" xmlns="http://www.w3.org/2000/svg">
<path d="M161.944 5.84H163.842L155.496 23H153.598L161.944 5.84ZM173.473 23V4.436H187.409V23H185.095V6.49H175.813V23H173.473ZM198.809 8.804C200.525 8.804 201.903 9.402 202.943 10.598C204 11.794 204.529 13.5967 204.529 16.006C204.529 17.5833 204.286 18.918 203.801 20.01C203.333 21.0847 202.665 21.8993 201.799 22.454C200.949 22.9913 199.944 23.26 198.783 23.26C198.072 23.26 197.439 23.1647 196.885 22.974C196.33 22.7833 195.853 22.5407 195.455 22.246C195.073 21.934 194.744 21.596 194.467 21.232H194.311C194.345 21.5267 194.38 21.8993 194.415 22.35C194.449 22.8007 194.467 23.1907 194.467 23.52V29.24H192.179V9.064H194.051L194.363 10.962H194.467C194.744 10.5633 195.073 10.1993 195.455 9.87C195.853 9.54067 196.321 9.28067 196.859 9.09C197.413 8.89933 198.063 8.804 198.809 8.804ZM198.393 10.728C197.457 10.728 196.703 10.91 196.131 11.274C195.559 11.6207 195.143 12.1493 194.883 12.86C194.623 13.5707 194.484 14.472 194.467 15.564V16.006C194.467 17.15 194.588 18.1207 194.831 18.918C195.073 19.7153 195.481 20.322 196.053 20.738C196.642 21.154 197.439 21.362 198.445 21.362C199.294 21.362 199.987 21.128 200.525 20.66C201.079 20.192 201.487 19.5593 201.747 18.762C202.024 17.9473 202.163 17.02 202.163 15.98C202.163 14.3853 201.851 13.1113 201.227 12.158C200.62 11.2047 199.675 10.728 198.393 10.728ZM220.291 16.006C220.291 17.1673 220.135 18.1987 219.823 19.1C219.528 19.984 219.095 20.738 218.523 21.362C217.968 21.986 217.284 22.4627 216.469 22.792C215.672 23.104 214.779 23.26 213.791 23.26C212.872 23.26 212.023 23.104 211.243 22.792C210.463 22.4627 209.787 21.986 209.215 21.362C208.643 20.738 208.192 19.984 207.863 19.1C207.551 18.1987 207.395 17.1673 207.395 16.006C207.395 14.4633 207.655 13.1633 208.175 12.106C208.695 11.0313 209.44 10.2167 210.411 9.662C211.382 9.09 212.534 8.804 213.869 8.804C215.134 8.804 216.244 9.09 217.197 9.662C218.168 10.2167 218.922 11.0313 219.459 12.106C220.014 13.1633 220.291 14.4633 220.291 16.006ZM209.761 16.006C209.761 17.098 209.9 18.0513 210.177 18.866C210.472 19.6633 210.922 20.2787 211.529 20.712C212.136 21.1453 212.907 21.362 213.843 21.362C214.779 21.362 215.55 21.1453 216.157 20.712C216.764 20.2787 217.206 19.6633 217.483 18.866C217.778 18.0513 217.925 17.098 217.925 16.006C217.925 14.8967 217.778 13.952 217.483 13.172C217.188 12.392 216.738 11.794 216.131 11.378C215.542 10.9447 214.77 10.728 213.817 10.728C212.396 10.728 211.364 11.196 210.723 12.132C210.082 13.068 209.761 14.3593 209.761 16.006ZM229.299 8.804C230.495 8.804 231.518 9.064 232.367 9.584C233.234 10.104 233.892 10.8407 234.343 11.794C234.811 12.73 235.045 13.8307 235.045 15.096V16.474H225.503C225.538 18.0513 225.936 19.256 226.699 20.088C227.479 20.9027 228.562 21.31 229.949 21.31C230.833 21.31 231.613 21.232 232.289 21.076C232.982 20.9027 233.693 20.66 234.421 20.348V22.35C233.71 22.662 233.008 22.8873 232.315 23.026C231.622 23.182 230.798 23.26 229.845 23.26C228.528 23.26 227.358 22.9913 226.335 22.454C225.33 21.9167 224.541 21.1193 223.969 20.062C223.414 18.9873 223.137 17.6787 223.137 16.136C223.137 14.6107 223.388 13.302 223.891 12.21C224.411 11.118 225.13 10.2773 226.049 9.688C226.985 9.09867 228.068 8.804 229.299 8.804ZM229.273 10.676C228.181 10.676 227.314 11.0313 226.673 11.742C226.049 12.4353 225.676 13.406 225.555 14.654H232.653C232.653 13.8567 232.532 13.1633 232.289 12.574C232.046 11.9847 231.674 11.5253 231.171 11.196C230.686 10.8493 230.053 10.676 229.273 10.676ZM246.835 9.064H249.331L243.377 15.772L249.825 23H247.173L240.881 15.928V23H238.593V9.064H240.881V15.824L246.835 9.064ZM261.975 10.988H257.425V23H255.163V10.988H250.665V9.064H261.975V10.988ZM264.72 23V9.064H267.008V14.784H270.622C271.835 14.784 272.832 14.9313 273.612 15.226C274.392 15.5207 274.972 15.9627 275.354 16.552C275.735 17.124 275.926 17.852 275.926 18.736C275.926 19.6027 275.735 20.3567 275.354 20.998C274.99 21.6393 274.409 22.1333 273.612 22.48C272.832 22.8267 271.8 23 270.518 23H264.72ZM270.31 21.154C271.298 21.154 272.104 20.9893 272.728 20.66C273.352 20.3133 273.664 19.7153 273.664 18.866C273.664 18.0167 273.378 17.4447 272.806 17.15C272.234 16.838 271.41 16.682 270.336 16.682H267.008V21.154H270.31ZM278.24 23V9.064H280.528V23H278.24Z" fill="#F23B67"/>
<g clip-path="url(#clip0_0_1)">
<path fill-rule="evenodd" clip-rule="evenodd" d="M135.11 9.85496C131.967 9.85496 130.326 11.404 130.326 13.915V14.851H139.892V13.916C139.892 11.404 138.287 9.85596 135.11 9.85596V9.85496ZM135.11 7.40796C140.486 7.40796 143 10.273 143 14.077V15.947C143 16.623 142.686 17.074 141.708 17.074H130.327V18.62C130.327 21.068 131.934 22.486 135.007 22.486C137.484 22.486 138.987 21.616 139.859 20.264C140.277 19.716 140.593 19.653 141.221 19.974L142.164 20.424C142.792 20.714 142.862 21.134 142.477 21.68C141.254 23.648 138.987 25 134.972 25C129.525 25 127.222 22.23 127.222 18.298V14.304C127.222 9.95196 129.944 7.40796 135.111 7.40796" fill="#352958"/>
<path fill-rule="evenodd" clip-rule="evenodd" d="M116.229 9.75507C113.026 9.75507 111.602 11.1681 111.602 13.8611V18.2981C111.602 20.9261 113.166 22.3061 116.3 22.3061C117.866 22.3061 119.184 22.0761 120.108 21.7811C120.572 21.6151 120.606 21.5191 120.606 21.1561V10.4761C119.789 10.2471 118.222 9.75607 116.229 9.75607V9.75507ZM115.625 7.06107C117.831 7.06107 119.682 7.55307 120.606 7.78307V0.983068C120.606 0.391068 120.82 0.195068 121.461 0.195068H122.956C123.561 0.195068 123.775 0.391068 123.775 0.982068V22.1761C123.775 23.2591 123.526 23.5561 122.386 23.9821C120.998 24.4761 119.041 25.0021 116.015 25.0021C110.784 25.0021 108.399 22.6021 108.399 18.3961V13.7631C108.399 9.49307 110.784 7.06107 115.625 7.06107Z" fill="#352958"/>
<path fill-rule="evenodd" clip-rule="evenodd" d="M53.255 9.85498C50.112 9.85498 48.472 11.404 48.472 13.915V14.851H58.037V13.916C58.037 11.404 56.431 9.85598 53.255 9.85598V9.85498ZM53.255 7.40798C58.63 7.40798 61.145 10.273 61.145 14.077V15.947C61.145 16.623 60.829 17.074 59.853 17.074H48.473V18.62C48.473 21.068 50.078 22.486 53.151 22.486C55.628 22.486 57.129 21.616 58.003 20.264C58.421 19.716 58.736 19.653 59.363 19.974L60.307 20.424C60.935 20.714 61.005 21.134 60.62 21.68C59.397 23.648 57.13 25 53.115 25C47.671 25 45.365 22.23 45.365 18.298V14.304C45.365 9.95198 48.089 7.40798 53.255 7.40798ZM68.048 23.03V23.303C68.048 24.594 67.61 25.001 66.184 25.001H65.965C64.541 25.001 64.103 24.628 64.103 23.303V23.03C64.103 21.739 64.541 21.297 65.965 21.297H66.185C67.61 21.297 68.048 21.739 68.048 23.03ZM79.043 7.40798C83.383 7.40798 85.715 9.17998 86.612 11.725C86.864 12.337 86.648 12.629 86.039 12.82L84.783 13.174C84.137 13.432 83.813 13.239 83.563 12.66C82.916 10.887 81.554 9.95398 78.898 9.95398C75.778 9.95398 74.236 11.37 74.236 13.755V18.62C74.236 21.004 75.815 22.454 78.898 22.454C81.482 22.454 82.953 21.456 83.598 19.652C83.886 19.039 84.138 18.942 84.818 19.136L86.075 19.458C86.719 19.684 86.935 19.942 86.685 20.553C85.537 23.42 83.097 25 78.827 25C73.52 25 71.007 22.516 71.007 18.49V13.884C71.007 9.88798 73.591 7.40698 79.043 7.40698V7.40798ZM97.618 10.018C94.665 10.018 92.872 11.338 92.872 13.561V18.846C92.872 21.068 94.665 22.391 97.618 22.391C100.603 22.391 102.396 21.068 102.396 18.846V13.561C102.396 11.339 100.603 10.018 97.618 10.018ZM97.618 7.40798C102.677 7.40798 105.524 9.75998 105.524 13.593V18.846C105.524 22.647 102.677 25.001 97.618 25.001C92.662 25.001 89.745 22.647 89.745 18.846V13.593C89.745 9.75998 92.662 7.40798 97.618 7.40798Z" fill="#352958"/>
<path fill-rule="evenodd" clip-rule="evenodd" d="M42.3031 8.58608V22.0841C42.3031 23.0891 42.0531 23.4781 40.9501 23.8991C39.5271 24.3841 37.462 24.9991 34.1521 24.9991C29.168 24.9991 26.925 22.6021 26.925 18.5891V8.58608C26.925 8.00308 27.139 7.80908 27.779 7.80908H29.276C29.88 7.80908 30.094 8.00308 30.094 8.58608V18.4911C30.094 21.0491 31.518 22.3431 34.578 22.3431C35.9385 22.3544 37.2935 22.1691 38.6011 21.7931C39.0651 21.5991 39.135 21.3721 39.135 21.0491V8.58608C39.135 8.00308 39.3491 7.80908 39.9901 7.80908H41.4501C42.0901 7.80908 42.3031 8.00308 42.3031 8.58608Z" fill="#352958"/>
<path fill-rule="evenodd" clip-rule="evenodd" d="M6.627 4.49308V7.63708H11.057C11.632 7.63708 11.834 7.83208 11.834 8.42408V9.56808C11.834 10.1581 11.632 10.3551 11.057 10.3551H6.627V17.9871C6.627 21.5571 7.709 22.2451 10.99 22.2451C11.632 22.2451 11.835 22.4081 11.835 23.0301V24.2101C11.835 24.7991 11.632 24.9621 10.99 24.9941C5.613 25.1251 3.617 23.5221 3.617 18.0521V10.3551H0.813C0.203 10.3551 0 10.1581 0 9.56808V8.42408C0 7.83208 0.203 7.63708 0.813 7.63708H3.617V4.49308C3.617 3.90308 3.788 3.70508 4.397 3.70508H5.816C6.424 3.70508 6.627 3.90208 6.627 4.49308ZM23.801 7.40908C24.442 7.40908 24.655 7.60708 24.655 8.20308V9.33008C24.655 9.92708 24.442 10.1261 23.801 10.1261H22.555C20.811 10.1261 19.492 10.3911 18.46 10.6891C17.996 10.8551 17.962 11.0531 17.962 11.3511V24.2061C17.962 24.8041 17.748 25.0021 17.108 25.0021H15.61C15.005 25.0021 14.792 24.8041 14.792 24.2061V10.2911C14.792 9.26408 15.04 8.86508 16.144 8.43508C17.462 7.97208 19.527 7.47508 22.661 7.40908H23.801Z" fill="#352958"/>
</g>
<defs>
<clipPath id="clip0_0_1">
<rect width="143" height="25" fill="white"/>
</clipPath>
</defs>
</svg>

