<svg width="174" height="56" viewBox="0 0 174 56" fill="none" xmlns="http://www.w3.org/2000/svg">
<path d="M7.20758 4.35815C7.92151 4.35815 8.21329 4.56919 8.21329 5.3637V9.38586H13.7012C14.4152 9.38586 14.6635 9.6776 14.6635 10.3914V11.8563C14.6635 12.5701 14.4152 12.8618 13.7012 12.8618H8.21329V22.6255C8.21329 24.8476 8.59198 26.269 9.34316 26.9829C10.0943 27.6967 11.5222 28.0691 13.6143 28.0691C14.4089 28.0691 14.6635 28.2801 14.6635 29.0746V30.5829C14.6635 31.2967 14.4152 31.545 13.6143 31.5885C10.2185 31.6692 7.87184 31.0857 6.5309 29.7884C5.1465 28.5346 4.47602 26.1883 4.47602 22.7062V12.8618H0.999501C0.29178 12.8618 0 12.5701 0 11.8563V10.3914C0 9.5969 0.29178 9.38586 1.00571 9.38586H4.48223V5.3637C4.48223 4.56919 4.73056 4.35815 5.44448 4.35815H7.20758Z" fill="#333333"/>
<path d="M29.0792 8.75818C29.8738 8.75818 30.0849 9.04991 30.0849 9.76372V11.1851C30.0849 11.8989 29.8738 12.1907 29.0792 12.1907H27.6141C25.9379 12.1907 24.3486 12.439 22.7966 12.9045C22.4179 13.0286 22.2131 13.3266 22.2131 13.7424V29.9987C22.2131 30.7932 22.002 31.0042 21.2073 31.0042H19.4505C18.7365 31.0042 18.4882 30.7125 18.4882 29.9987V12.4017C18.4882 11.061 18.78 10.6017 20.0775 10.0555C22.1696 9.26095 24.7273 8.80163 27.7444 8.75818H29.0792Z" fill="#333333"/>
<path d="M50.5706 9.38513C51.3653 9.38513 51.5763 9.59617 51.5763 10.3907V27.8573C51.5763 29.198 51.2846 29.6574 49.9871 30.2036C47.4293 31.1657 44.7909 31.625 41.9848 31.625C36.3293 31.625 33.4798 28.8629 33.4798 23.3324V10.3907C33.4798 9.59617 33.6908 9.38513 34.4855 9.38513H36.2424C36.9563 9.38513 37.2046 9.67686 37.2046 10.3907V23.2082C37.2046 26.5166 38.9615 28.1925 42.4815 28.1925C44.1142 28.1925 45.6662 27.9442 47.2183 27.4787C47.6404 27.2676 47.8453 26.9759 47.8453 26.5166V10.3907C47.8453 9.59617 48.1371 9.38513 48.851 9.38513H50.5706Z" fill="#333333"/>
<path d="M55.7666 17.7212C55.7666 12.0231 59.0755 8.75818 65.2339 8.75818C71.4358 8.75818 74.7013 12.2341 74.7013 17.4294V19.8564C74.7013 20.8185 74.1984 21.3212 73.1492 21.3212H59.4915V23.3323C59.4915 26.56 61.4594 28.36 65.1036 28.36C67.8289 28.36 69.7969 27.3979 70.9267 25.4676C71.4296 24.7537 71.8455 24.6296 72.5595 25.0889L73.6893 25.6724C74.4033 26.051 74.5274 26.591 74.068 27.3048C72.4353 30.1973 69.4182 31.6187 65.0601 31.6187C58.8148 31.6187 55.7604 28.2669 55.7604 22.904V17.7212H55.7666ZM70.9764 17.2184C70.9764 13.8666 68.965 11.9424 65.2339 11.9424C61.5029 11.9424 59.4915 13.91 59.4915 17.2184V18.435H70.9702V17.2184H70.9764Z" fill="#333333"/>
<path d="M81.3198 26.6844C82.9525 26.6844 83.4553 27.1872 83.4553 28.8197V29.1549C83.4553 30.7873 82.9525 31.2466 81.3198 31.2466H81.0714C79.4387 31.2466 78.9359 30.7873 78.9359 29.1549V28.8197C78.9359 27.1872 79.4387 26.6844 81.0714 26.6844H81.3198Z" fill="#333333"/>
<path d="M87.1863 17.1757C87.1863 11.8562 90.3276 8.75269 96.5729 8.75269C101.31 8.75269 104.24 10.6396 105.413 14.3639C105.662 15.0777 105.457 15.537 104.743 15.7853L103.278 16.2446C102.607 16.5363 102.148 16.3253 101.856 15.5742C101.105 13.228 99.2983 12.0548 96.4115 12.0548C92.8481 12.0548 90.967 13.8549 90.967 16.9956V23.3206C90.967 26.4614 92.8543 28.3049 96.4115 28.3049C99.3045 28.3049 101.105 27.0883 101.899 24.6614C102.235 23.8669 102.526 23.6993 103.321 23.991L104.786 24.4131C105.5 24.7048 105.748 25.1641 105.5 25.8345C104.116 29.6891 101.061 31.6133 96.3246 31.6133C90.2469 31.6133 87.1925 28.5159 87.1925 23.153V17.1757H87.1863Z" fill="#333333"/>
<path d="M109.479 16.797C109.479 11.7693 112.999 8.75269 118.866 8.75269C124.857 8.75269 128.296 11.7693 128.296 16.797V23.6248C128.296 28.609 124.863 31.6257 118.866 31.6257C112.999 31.6257 109.479 28.609 109.479 23.6248V16.797ZM124.559 16.7598C124.559 13.8673 122.423 12.1541 118.86 12.1541C115.34 12.1541 113.204 13.8735 113.204 16.7598V23.631C113.204 26.5235 115.34 28.2366 118.86 28.2366C122.423 28.2366 124.559 26.5173 124.559 23.631V16.7598Z" fill="#333333"/>
<path d="M132.772 17.299C132.772 11.7686 135.622 8.75194 141.277 8.75194C142.91 8.75194 144.841 9.04367 147.144 9.67058V1.00554C147.144 0.21104 147.436 0 148.149 0H149.906C150.62 0 150.869 0.291731 150.869 1.00554V28.0248C150.869 29.409 150.577 29.7814 149.236 30.3276C146.976 31.209 144.462 31.6249 141.737 31.6249C135.746 31.6249 132.772 28.8193 132.772 23.202V17.299ZM147.144 13.1093C145.132 12.4824 143.413 12.1906 141.991 12.1906C138.347 12.1906 136.547 13.9472 136.547 17.4294V23.084C136.547 26.4793 138.39 28.1924 142.078 28.1924C143.798 28.1924 145.263 27.9814 146.56 27.5221C146.939 27.3979 147.144 27.1062 147.144 26.7276V13.1093Z" fill="#333333"/>
<path d="M155.059 17.7212C155.059 12.0231 158.368 8.75818 164.527 8.75818C170.728 8.75818 173.994 12.2341 173.994 17.4294V19.8564C173.994 20.8185 173.491 21.3212 172.442 21.3212H158.784V23.3323C158.784 26.56 160.752 28.36 164.396 28.36C167.122 28.36 169.09 27.3979 170.219 25.4676C170.722 24.7537 171.138 24.6296 171.852 25.0889L172.982 25.6724C173.696 26.051 173.82 26.591 173.361 27.3048C171.728 30.1973 168.711 31.6187 164.353 31.6187C158.107 31.6187 155.053 28.2669 155.053 22.904V17.7212H155.059ZM170.269 17.2184C170.269 13.8666 168.258 11.9424 164.527 11.9424C160.796 11.9424 158.784 13.91 158.784 17.2184V18.435H170.263V17.2184H170.269Z" fill="#333333"/>
<path d="M37.2263 47.7065C37.2263 45.8444 38.1327 44.9196 39.9516 44.9196C40.7773 44.9196 41.6154 45.0872 42.4659 45.4285V42.0643C42.4659 41.9526 42.5218 41.8967 42.6335 41.8967H42.9067C43.0184 41.8967 43.0743 41.9526 43.0743 42.0643V51.4121C43.0743 51.8653 42.9625 52.008 42.5031 52.1942C41.8203 52.4673 41.038 52.6039 40.1565 52.6039C38.1947 52.6039 37.2139 51.6666 37.2139 49.7797V47.7065H37.2263ZM42.4721 46.0306C41.7209 45.6768 40.9077 45.4906 40.0448 45.4906C38.5672 45.4906 37.8285 46.2292 37.8285 47.7189V49.7673C37.8285 51.288 38.6231 52.0577 40.2186 52.0577C40.9015 52.0577 41.5409 51.9459 42.1369 51.7287C42.4349 51.5983 42.4783 51.5425 42.4783 51.2445V46.0306H42.4721Z" fill="#333333"/>
<path d="M46.8187 42.5916C47.0859 42.5916 47.1729 42.6785 47.1729 42.9454V43.0323C47.1729 43.3054 47.0859 43.4047 46.8187 43.4047H46.7441C46.4583 43.4047 46.3775 43.3178 46.3775 43.0323V42.9454C46.3775 42.6785 46.4645 42.5916 46.7441 42.5916H46.8187ZM46.9181 45.1364C47.03 45.1364 47.0859 45.1923 47.0859 45.2916V52.2373C47.0859 52.349 47.03 52.4049 46.9181 52.4049H46.6323C46.5329 52.4049 46.477 52.349 46.477 52.2373V45.2916C46.477 45.1923 46.5329 45.1364 46.6323 45.1364H46.9181Z" fill="#333333"/>
<path d="M50.2566 47.7934C50.2566 45.8755 51.2499 44.9258 53.2427 44.9258C54.1366 44.9258 54.9064 45.0685 55.5707 45.3354C56.0239 45.5465 56.1232 45.6644 56.1232 46.1175V52.9391C56.1232 54.9874 55.1423 56.0054 53.1806 56.0054C51.8893 56.0054 50.9643 55.4654 50.4242 54.3977C50.3559 54.2674 50.3807 54.1867 50.4987 54.1308L50.6974 54.0315C50.7967 53.9757 50.8836 54.0005 50.9519 54.0998C51.3927 54.9688 52.0197 55.4467 53.1682 55.4467C54.7326 55.4467 55.5148 54.6212 55.5148 52.9577V51.9894C54.7078 52.3308 53.8635 52.4984 52.9881 52.4984C51.1692 52.4984 50.2628 51.5922 50.2628 49.7735V47.7934H50.2566ZM53.2861 45.4906C51.6782 45.4906 50.8712 46.2603 50.8712 47.8059V49.7673C50.8712 51.2321 51.5975 51.9522 53.0564 51.9522C53.8511 51.9522 54.6767 51.7846 55.5148 51.4246V46.2789C55.5148 45.9934 55.459 45.9375 55.161 45.8072C54.5774 45.6024 53.9504 45.4906 53.2861 45.4906Z" fill="#333333"/>
<path d="M59.8614 42.5916C60.1286 42.5916 60.2156 42.6785 60.2156 42.9454V43.0323C60.2156 43.3054 60.1286 43.4047 59.8614 43.4047H59.7868C59.501 43.4047 59.4202 43.3178 59.4202 43.0323V42.9454C59.4202 42.6785 59.5072 42.5916 59.7868 42.5916H59.8614ZM59.9608 45.1364C60.0726 45.1364 60.1286 45.1923 60.1286 45.2916V52.2373C60.1286 52.349 60.0726 52.4049 59.9608 52.4049H59.675C59.5755 52.4049 59.5196 52.349 59.5196 52.2373V45.2916C59.5196 45.1923 59.5755 45.1364 59.675 45.1364H59.9608Z" fill="#333333"/>
<path d="M64.7348 43.4302C64.8465 43.4302 64.9086 43.486 64.9086 43.5853V45.1309H67.1683C67.2801 45.1309 67.336 45.1868 67.336 45.2861V45.5281C67.336 45.6275 67.2801 45.6833 67.1683 45.6833H64.9086V49.8048C64.9086 50.6986 65.0638 51.2945 65.3742 51.58C65.6722 51.878 66.2682 52.0207 67.1373 52.0207C67.249 52.0207 67.3111 52.0766 67.3111 52.1883V52.4304C67.3111 52.5421 67.2553 52.598 67.1373 52.598C66.0695 52.6104 65.3307 52.4118 64.921 52.0145C64.5113 51.6297 64.294 50.891 64.294 49.811V45.6771H62.7606C62.6613 45.6771 62.6054 45.6212 62.6054 45.5219V45.2799C62.6054 45.1805 62.6613 45.1247 62.7606 45.1247H64.294V43.5791C64.294 43.4798 64.3499 43.424 64.4616 43.424H64.7348V43.4302Z" fill="#333333"/>
<path d="M72.4694 44.9197C73.5062 44.9197 74.2201 45.1742 74.6298 45.6707C75.0272 46.1673 75.2258 46.8501 75.2258 47.688V51.4247C75.2258 51.9212 75.1141 52.064 74.7168 52.2316C74.1456 52.4737 73.3944 52.5978 72.457 52.5978C71.2899 52.5978 70.4953 52.4302 70.0669 52.0702C69.6385 51.7288 69.4275 51.1888 69.4275 50.4377C69.4275 48.8612 70.2966 48.2901 72.5129 48.2901C72.9226 48.2901 73.6241 48.346 74.6174 48.4453V47.6632C74.6174 46.2852 74.1084 45.4597 72.4446 45.4597C71.3768 45.4597 70.638 45.8569 70.2159 46.6701C70.16 46.757 70.0855 46.7818 69.9862 46.7383L69.7565 46.6514C69.6447 46.5956 69.6137 46.5087 69.6696 46.4094C70.1911 45.4162 71.1161 44.9197 72.4694 44.9197ZM74.6112 48.9729C73.5745 48.8736 72.8481 48.8177 72.4508 48.8177C70.6877 48.8177 70.0483 49.2584 70.0483 50.4377C70.0483 51.0088 70.2159 51.4185 70.5449 51.6854C70.874 51.9585 71.4823 52.095 72.4073 52.095C73.1771 52.095 73.7979 51.9957 74.2822 51.8095C74.5677 51.6978 74.6112 51.6233 74.6112 51.2819V48.9729Z" fill="#333333"/>
<path d="M78.8889 52.2377C78.8889 52.3494 78.8329 52.4053 78.7335 52.4053H78.4477C78.3483 52.4053 78.2924 52.3494 78.2924 52.2377V42.0643C78.2924 41.9526 78.3483 41.8967 78.4477 41.8967H78.7335C78.8329 41.8967 78.8889 41.9526 78.8889 42.0643V52.2377Z" fill="#333333"/>
<path d="M89.87 44.9197C90.9068 44.9197 91.6207 45.1742 92.0304 45.6707C92.4278 46.1673 92.6264 46.8501 92.6264 47.688V51.4247C92.6264 51.9212 92.5147 52.064 92.1174 52.2316C91.5462 52.4737 90.795 52.5978 89.8576 52.5978C88.6905 52.5978 87.8958 52.4302 87.4675 52.0702C87.0391 51.7288 86.8281 51.1888 86.8281 50.4377C86.8281 48.8612 87.6972 48.2901 89.9135 48.2901C90.3232 48.2901 91.0247 48.346 92.018 48.4453V47.6632C92.018 46.2852 91.509 45.4597 89.8452 45.4597C88.7774 45.4597 88.0386 45.8569 87.6165 46.6701C87.5606 46.757 87.4861 46.7818 87.3868 46.7383L87.1571 46.6514C87.0453 46.5956 87.0143 46.5087 87.0702 46.4094C87.5979 45.4162 88.5229 44.9197 89.87 44.9197ZM92.018 48.9729C90.9813 48.8736 90.2549 48.8177 89.8576 48.8177C88.0945 48.8177 87.4551 49.2584 87.4551 50.4377C87.4551 51.0088 87.6227 51.4185 87.9517 51.6854C88.2807 51.9585 88.8891 52.095 89.8141 52.095C90.584 52.095 91.2048 51.9957 91.689 51.8095C91.9746 51.6978 92.018 51.6233 92.018 51.2819V48.9729Z" fill="#333333"/>
<path d="M95.6694 47.7934C95.6694 45.8755 96.6627 44.9258 98.6555 44.9258C99.5495 44.9258 100.319 45.0685 100.984 45.3354C101.437 45.5465 101.536 45.6644 101.536 46.1175V52.9391C101.536 54.9874 100.555 56.0054 98.5934 56.0054C97.3021 56.0054 96.3771 55.4654 95.837 54.3977C95.7687 54.2674 95.7936 54.1867 95.9115 54.1308L96.1102 54.0315C96.2095 53.9757 96.2964 54.0005 96.3647 54.0998C96.8055 54.9688 97.4325 55.4467 98.581 55.4467C100.145 55.4467 100.928 54.6212 100.928 52.9577V51.9894C100.121 52.3308 99.2763 52.4984 98.401 52.4984C96.582 52.4984 95.6756 51.5922 95.6756 49.7735V47.7934H95.6694ZM98.699 45.4906C97.0911 45.4906 96.284 46.2603 96.284 47.8059V49.7673C96.284 51.2321 97.0104 51.9522 98.4693 51.9522C99.2639 51.9522 100.09 51.7846 100.928 51.4246V46.2789C100.928 45.9934 100.872 45.9375 100.574 45.8072C99.9903 45.6024 99.3632 45.4906 98.699 45.4906Z" fill="#333333"/>
<path d="M104.367 47.8928C104.367 46.0306 105.447 44.9258 107.433 44.9258C109.439 44.9258 110.5 46.0617 110.5 47.8679V48.5941C110.5 48.8052 110.388 48.9045 110.171 48.9045H104.969V49.8728C104.969 51.2508 105.794 52.0887 107.34 52.0887C108.507 52.0887 109.345 51.617 109.854 50.6983C109.923 50.599 110.01 50.568 110.109 50.6301L110.308 50.7418C110.419 50.7976 110.438 50.8845 110.364 50.9963C109.78 52.0763 108.774 52.6163 107.334 52.6163C105.36 52.6163 104.348 51.5673 104.348 49.8169V47.8928H104.367ZM109.892 47.8307C109.892 46.3534 109.041 45.4596 107.433 45.4596C105.825 45.4596 104.975 46.3534 104.975 47.8307V48.4017H109.892V47.8307Z" fill="#333333"/>
<path d="M116.628 44.9197C118.459 44.9197 119.384 45.8259 119.384 47.6632V52.2378C119.384 52.3495 119.328 52.4054 119.217 52.4054H118.931C118.832 52.4054 118.776 52.3495 118.776 52.2378V47.6942C118.776 46.2294 118.037 45.4907 116.56 45.4907C115.79 45.4907 115.082 45.6211 114.43 45.8631C114.232 45.9625 114.132 46.1176 114.132 46.3349V52.244C114.132 52.3557 114.076 52.4116 113.977 52.4116H113.691C113.58 52.4116 113.524 52.3557 113.524 52.244V46.1797C113.524 45.739 113.623 45.5838 114.064 45.3976C114.852 45.0749 115.703 44.9197 116.628 44.9197Z" fill="#333333"/>
<path d="M122.215 47.6756C122.215 45.9252 123.252 44.9197 125.244 44.9197C126.821 44.9197 127.79 45.5714 128.168 46.8687C128.212 46.9804 128.168 47.0673 128.069 47.1108L127.827 47.1977C127.715 47.2411 127.641 47.1977 127.597 47.0859C127.256 45.9625 126.592 45.4783 125.213 45.4783C123.636 45.4783 122.811 46.2852 122.811 47.6508V49.8667C122.811 51.2323 123.68 52.0516 125.213 52.0516C126.56 52.0516 127.299 51.5116 127.628 50.3633C127.672 50.2515 127.74 50.2081 127.858 50.2515L128.112 50.3384C128.224 50.3819 128.255 50.4688 128.212 50.5681C127.802 51.9337 126.79 52.6164 125.213 52.6164C123.264 52.6164 122.215 51.6109 122.215 49.8605V47.6756Z" fill="#333333"/>
<path d="M136.518 45.1375C136.617 45.1375 136.673 45.1934 136.673 45.2927V52.9336C136.673 54.9819 135.692 55.9998 133.718 55.9998C132.408 55.9998 131.49 55.4598 130.949 54.3922C130.863 54.2619 130.894 54.1812 131.018 54.1253L131.204 54.026C131.316 53.9701 131.403 53.995 131.471 54.0943C131.924 54.9881 132.663 55.4412 133.7 55.4412C135.276 55.4412 136.059 54.6157 136.059 52.9522V52.0273C135.221 52.3377 134.382 52.4991 133.575 52.4991C131.744 52.4991 130.819 51.5928 130.819 49.7556V45.2803C130.819 45.181 130.875 45.1251 130.987 45.1251H131.254C131.365 45.1251 131.427 45.181 131.427 45.2803V49.7245C131.427 51.2018 132.166 51.9404 133.631 51.9404C134.438 51.9404 135.252 51.7853 136.059 51.4563V45.2741C136.059 45.1748 136.115 45.1189 136.232 45.1189H136.518V45.1375Z" fill="#333333"/>
</svg>
