<svg version="1.0" xmlns="http://www.w3.org/2000/svg"
 width="512.000000pt" height="512.000000pt" viewBox="0 0 512.000000 512.000000"
 preserveAspectRatio="xMidYMid meet">

<g transform="translate(0.000000,512.000000) scale(0.100000,-0.100000)"
fill="#352958" stroke="none">
<path d="M1926 5104 c-176 -43 -324 -188 -371 -365 -12 -45 -15 -216 -15
-1030 0 -947 1 -979 20 -1040 27 -87 65 -149 130 -215 71 -71 187 -130 285
-144 41 -5 393 -10 840 -10 l770 0 382 -382 383 -383 0 381 0 381 173 5 c197
6 263 22 363 86 111 72 200 204 224 331 14 77 14 1923 -1 1993 -39 189 -208
358 -397 397 -37 8 -450 11 -1390 10 -1119 -1 -1347 -3 -1396 -15z"/>
<path d="M377 3565 c-176 -48 -320 -198 -362 -376 -22 -96 -22 -1932 0 -2028
43 -180 189 -328 370 -376 42 -10 108 -15 222 -15 l163 0 0 -382 0 -383 383
383 382 382 805 0 c875 0 853 -1 969 57 69 34 177 140 213 209 52 98 58 142
58 461 l0 293 -792 0 c-861 0 -908 3 -1066 55 -285 96 -524 325 -628 604 -64
171 -66 192 -71 684 l-5 447 -296 -1 c-213 -1 -311 -5 -345 -14z"/>
</g>
</svg>
