<svg width="25" height="25" viewBox="0 0 25 25" fill="none" xmlns="http://www.w3.org/2000/svg">
<path d="M9.82122 17.8571H7.14265V0.892857C7.14265 0.656057 7.04858 0.428955 6.88114 0.261512C6.7137 0.0940686 6.4866 4.66861e-09 6.24979 4.66861e-09H4.46408C4.22728 4.66861e-09 4.00018 0.0940686 3.83274 0.261512C3.66529 0.428955 3.57122 0.656057 3.57122 0.892857V17.8571H0.892652C0.1008 17.8571 -0.299312 18.8192 0.26263 19.3811L4.72692 24.7383C4.89434 24.9056 5.12136 24.9996 5.35805 24.9996C5.59475 24.9996 5.82177 24.9056 5.98919 24.7383L10.4535 19.3811C11.0126 18.8203 10.6147 17.8571 9.82122 17.8571ZM23.2141 14.2857H16.0712C15.8344 14.2857 15.6073 14.3798 15.4399 14.5472C15.2724 14.7147 15.1784 14.9418 15.1784 15.1786V16.9643C15.1784 17.2011 15.2724 17.4282 15.4399 17.5956C15.6073 17.7631 15.8344 17.8571 16.0712 17.8571H19.1962L15.7777 21.7885C15.5892 21.9561 15.4383 22.1616 15.335 22.3917C15.2317 22.6218 15.1783 22.8711 15.1784 23.1233V24.1071C15.1784 24.3439 15.2724 24.571 15.4399 24.7385C15.6073 24.9059 15.8344 25 16.0712 25H23.2141C23.4509 25 23.678 24.9059 23.8454 24.7385C24.0129 24.571 24.1069 24.3439 24.1069 24.1071V22.3214C24.1069 22.0846 24.0129 21.8575 23.8454 21.6901C23.678 21.5226 23.4509 21.4286 23.2141 21.4286H20.0891L23.5076 17.4972C23.6961 17.3297 23.847 17.1241 23.9503 16.894C24.0536 16.6639 24.107 16.4146 24.1069 16.1624V15.1786C24.1069 14.9418 24.0129 14.7147 23.8454 14.5472C23.678 14.3798 23.4509 14.2857 23.2141 14.2857ZM24.9473 9.5212L21.6399 0.592634C21.5779 0.419176 21.4639 0.269116 21.3133 0.163019C21.1628 0.0569222 20.9831 -1.88252e-05 20.7989 4.66861e-09H18.4864C18.3022 -1.88252e-05 18.1225 0.0569222 17.972 0.163019C17.8214 0.269116 17.7074 0.419176 17.6454 0.592634L14.338 9.5212C14.2899 9.65591 14.2748 9.8002 14.2941 9.94193C14.3134 10.0837 14.3665 10.2187 14.4489 10.3356C14.5313 10.4525 14.6405 10.548 14.7675 10.6139C14.8944 10.6798 15.0353 10.7142 15.1784 10.7143H16.564C16.7528 10.7143 16.9368 10.6545 17.0895 10.5434C17.2422 10.4323 17.3558 10.2757 17.4139 10.096L17.6605 9.375H21.6226L21.8687 10.096C21.9268 10.276 22.0407 10.433 22.1939 10.5441C22.347 10.6552 22.5316 10.7148 22.7208 10.7143H24.1069C24.25 10.7142 24.3909 10.6798 24.5178 10.6139C24.6448 10.548 24.754 10.4525 24.8364 10.3356C24.9188 10.2187 24.9719 10.0837 24.9912 9.94193C25.0105 9.8002 24.9954 9.65591 24.9473 9.5212ZM18.728 6.25L19.6427 3.57143L20.5573 6.25H18.728Z" fill="#352958"/>
</svg>
