<svg width="52" height="49" viewBox="0 0 52 49" xmlns="http://www.w3.org/2000/svg">
<path d="M29.7337 3.6997C29.7337 1.60104 27.9621 -0.0944824 25.7692 -0.0944824C23.5764 -0.0944824 21.8047 1.60104 21.8047 3.6997V20.7735H3.9645C1.77163 20.7735 0 22.469 0 24.5677C0 26.6663 1.77163 28.3619 3.9645 28.3619H21.8047V45.4357C21.8047 47.5343 23.5764 49.2298 25.7692 49.2298C27.9621 49.2298 29.7337 47.5343 29.7337 45.4357V28.3619H47.574C49.7668 28.3619 51.5385 26.6663 51.5385 24.5677C51.5385 22.469 49.7668 20.7735 47.574 20.7735H29.7337V3.6997Z" fill="#352958"/>
</svg>