<svg width="10" height="15" viewBox="0 0 10 15" xmlns="http://www.w3.org/2000/svg">
<path d="M10 1.78363C10 0.79807 9.204 0 8.221 0H1.779C0.796 0 0 0.79807 0 1.78363V13.0047C0 13.4198 0.256 13.7928 0.643 13.9412C1.031 14.0896 1.469 13.9833 1.746 13.6735C2.739 12.5596 3.908 11.2502 4.539 10.5424C4.656 10.411 4.824 10.3358 5 10.3358C5.176 10.3358 5.344 10.411 5.461 10.5424C6.092 11.2502 7.261 12.5596 8.254 13.6735C8.531 13.9833 8.969 14.0896 9.357 13.9412C9.744 13.7928 10 13.4198 10 13.0047V1.78363Z"/>
</svg>
