<svg width="52" height="50" viewBox="0 0 52 50" xmlns="http://www.w3.org/2000/svg">
<path d="M48.943 16.2695C49.268 17.1191 48.9938 18.0664 48.293 18.6719L45.1547 21.416C44.3727 22.1094 43.9969 23.125 44.0477 24.1406C44.0578 24.4238 44.068 24.707 44.068 25C44.068 25.293 44.0578 25.5762 44.0477 25.8594C43.9969 26.8848 44.3625 27.9004 45.1547 28.584L48.293 31.3281C48.9938 31.9336 49.268 32.8809 48.943 33.7305C48.4961 34.8926 47.9578 36.0059 47.3383 37.0801L46.8609 37.8711C46.1906 38.9453 45.4391 39.9609 44.6164 40.918C44.0172 41.6211 43.0219 41.8555 42.1281 41.582L38.0961 40.3516C37.0805 40.0391 35.9836 40.2441 35.0797 40.8008C34.582 41.1035 34.0742 41.3965 33.5461 41.6504C32.6016 42.1191 31.8703 42.9395 31.6367 43.9355L30.7328 47.9102C30.5297 48.7988 29.8188 49.502 28.8844 49.6484C27.4828 49.873 26.0406 49.9902 24.568 49.9902C23.0953 49.9902 21.6531 49.873 20.2516 49.6484C19.3172 49.502 18.6063 48.7988 18.4031 47.9102L17.4992 43.9355C17.2758 42.9395 16.5344 42.1191 15.5898 41.6504C15.0617 41.3867 14.5539 41.1035 14.0563 40.8008C13.1625 40.2441 12.0555 40.0391 11.0398 40.3516L7.01797 41.5918C6.12422 41.8652 5.12891 41.6211 4.52969 40.9277C3.70703 39.9707 2.95547 38.9551 2.28516 37.8809L1.80781 37.0898C1.18828 36.0156 0.650002 34.9023 0.203127 33.7402C-0.121873 32.8906 0.152345 31.9434 0.853127 31.3379L3.99141 28.5937C4.77344 27.9004 5.14922 26.8848 5.09844 25.8691C5.08828 25.5859 5.07813 25.3027 5.07813 25.0098C5.07813 24.7168 5.08828 24.4336 5.09844 24.1504C5.14922 23.125 4.7836 22.1094 3.99141 21.4258L0.853127 18.6719C0.152345 18.0664 -0.121873 17.1191 0.203127 16.2695C0.650002 15.1074 1.18828 13.9941 1.80781 12.9199L2.28516 12.1289C2.95547 11.0547 3.70703 10.0391 4.52969 9.08203C5.12891 8.37891 6.12422 8.14453 7.01797 8.41797L11.05 9.64844C12.0656 9.96094 13.1625 9.75586 14.0664 9.19922C14.5641 8.89648 15.0719 8.60352 15.6 8.34961C16.5445 7.88086 17.2758 7.06055 17.5094 6.06445L18.4133 2.08984C18.6164 1.20117 19.3273 0.498047 20.2617 0.351562C21.6633 0.117187 23.1055 0 24.5781 0C26.0508 0 27.493 0.117188 28.8945 0.341797C29.8289 0.488281 30.5399 1.19141 30.743 2.08008L31.6469 6.05469C31.8703 7.05078 32.6016 7.87109 33.5563 8.33984C34.0844 8.60352 34.5922 8.88672 35.0898 9.18945C35.9836 9.74609 37.0906 9.94141 38.1063 9.63867L42.1383 8.4082C43.032 8.13477 44.0273 8.37891 44.6266 9.07227C45.4492 10.0293 46.2008 11.0449 46.8711 12.1191L47.3484 12.9102C47.968 13.9844 48.5063 15.0977 48.9531 16.2598L48.943 16.2695ZM24.5781 32.8125C26.733 32.8125 28.7996 31.9894 30.3234 30.5243C31.8471 29.0591 32.7031 27.072 32.7031 25C32.7031 22.928 31.8471 20.9409 30.3234 19.4757C28.7996 18.0106 26.733 17.1875 24.5781 17.1875C22.4232 17.1875 20.3566 18.0106 18.8329 19.4757C17.3092 20.9409 16.4531 22.928 16.4531 25C16.4531 27.072 17.3092 29.0591 18.8329 30.5243C20.3566 31.9894 22.4232 32.8125 24.5781 32.8125Z" fill="#352958"/>
</svg>